# xmcd
# 
# Track frame offsets:
#     150
#     20900
#     40055
#     60230
#     84782
#     105675
#     127082
#     144012
#     161725
#     181922
#     204257
#     219205
#     236337
#     254015
#     272335
#     292850
# 
# Disc length: 4128
# 
# Revision: 3
# Processed by: cddbd v1.5.2PL0 Copyright (c) Steve Scherf et al.
# Submitted via: fre:ac v1.1beta1pre4
# 
DISCID=d0101e10
DTITLE=陳慧嫻 - 32 首選 [CD1]
DYEAR=1998
DGENRE=
TTITLE0=二人時間
TTITLE1=奇妙旅程
TTITLE2=禮物
TTITLE3=緣了, 就是完
TTITLE4=留戀
TTITLE5=心滿意足
TTITLE6=今天夜裡總下雨
TTITLE7=飄雪
TTITLE8=夜機
TTITLE9=千千闋歌
TTITLE10=地球大追蹤
TTITLE11=傻女
TTITLE12=花店
TTITLE13=玻璃窗的愛
TTITLE14=與淚抱擁
TTITLE15=跳舞街
EXTD=
EXTT0=
EXTT1=
EXTT2=
EXTT3=
EXTT4=
EXTT5=
EXTT6=
EXTT7=
EXTT8=
EXTT9=
EXTT10=
EXTT11=
EXTT12=
EXTT13=
EXTT14=
EXTT15=
PLAYORDER=
